<?xml version="1.0" encoding="UTF-8" standalone="no"?>
<!DOCTYPE svg PUBLIC "-//W3C//DTD SVG 1.1//EN" "http://www.w3.org/Graphics/SVG/1.1/DTD/svg11.dtd">
<svg width="100%" height="100%" viewBox="0 0 153 153" version="1.1" xmlns="http://www.w3.org/2000/svg" xmlns:xlink="http://www.w3.org/1999/xlink" xml:space="preserve" xmlns:serif="http://www.serif.com/" style="fill-rule:evenodd;clip-rule:evenodd;stroke-linecap:round;stroke-linejoin:round;stroke-miterlimit:1.5;">
    <g transform="matrix(1,0,0,1,-939.848,-1051.13)">
        <g transform="matrix(0.184517,0,0,0.184517,743.933,919.325)">
            <g>
                <path d="M1479.79,726.509C1529.14,777.898 1559.48,847.65 1559.48,924.431C1559.48,1003.94 1526.94,1075.91 1474.46,1127.76C1425.11,1076.37 1394.77,1006.62 1394.77,929.837C1394.77,850.327 1427.31,778.355 1479.79,726.509Z" style="fill:rgb(33,122,112);stroke:rgb(230,230,230);stroke-opacity:0;stroke-width:24.39px;"/>
                <g transform="matrix(-0.00167408,0.999999,-0.999999,-0.00167408,2604.3,-345.538)">
                    <path d="M1479.79,726.509C1529.14,777.898 1559.48,847.65 1559.48,924.431C1559.48,1003.94 1526.94,1075.91 1474.46,1127.76C1425.11,1076.37 1394.77,1006.62 1394.77,929.837C1394.77,850.327 1427.31,778.355 1479.79,726.509Z" style="fill:rgb(33,122,112);stroke:rgb(230,230,230);stroke-opacity:0;stroke-width:24.39px;"/>
                </g>
                <g transform="matrix(-0.999994,-0.00334815,0.00334815,-0.999994,2945.48,2259.34)">
                    <path d="M1479.79,726.509C1529.14,777.898 1559.48,847.65 1559.48,924.431C1559.48,1003.94 1526.94,1075.91 1474.46,1127.76C1425.11,1076.37 1394.77,1006.62 1394.77,929.837C1394.77,850.327 1427.31,778.355 1479.79,726.509Z" style="fill:rgb(33,122,112);stroke:rgb(230,230,230);stroke-opacity:0;stroke-width:24.39px;"/>
                </g>
                <g transform="matrix(0.00502222,-0.999987,0.999987,0.00502222,340.035,2596.16)">
                    <path d="M1479.79,726.509C1529.14,777.898 1559.48,847.65 1559.48,924.431C1559.48,1003.94 1526.94,1075.91 1474.46,1127.76C1425.11,1076.37 1394.77,1006.62 1394.77,929.837C1394.77,850.327 1427.31,778.355 1479.79,726.509Z" style="fill:rgb(33,122,112);stroke:rgb(230,230,230);stroke-opacity:0;stroke-width:24.39px;"/>
                </g>
            </g>
            <g transform="matrix(0.792293,0.610141,-0.610141,0.792293,994.099,-665.497)">
                <path d="M1479.79,726.509C1529.14,777.898 1559.48,847.65 1559.48,924.431C1559.48,1003.94 1526.94,1075.91 1474.46,1127.76C1425.11,1076.37 1394.77,1006.62 1394.77,929.837C1394.77,850.327 1427.31,778.355 1479.79,726.509Z" style="fill:rgb(80,212,197);stroke:rgb(230,230,230);stroke-opacity:0;stroke-width:24.39px;"/>
                <g transform="matrix(-0.00167408,0.999999,-0.999999,-0.00167408,2604.3,-345.538)">
                    <path d="M1479.79,726.509C1529.14,777.898 1559.48,847.65 1559.48,924.431C1559.48,1003.94 1526.94,1075.91 1474.46,1127.76C1425.11,1076.37 1394.77,1006.62 1394.77,929.837C1394.77,850.327 1427.31,778.355 1479.79,726.509Z" style="fill:rgb(80,212,197);stroke:rgb(230,230,230);stroke-opacity:0;stroke-width:24.39px;"/>
                </g>
                <g transform="matrix(-0.999994,-0.00334815,0.00334815,-0.999994,2945.48,2259.34)">
                    <path d="M1479.79,726.509C1529.14,777.898 1559.48,847.65 1559.48,924.431C1559.48,1003.94 1526.94,1075.91 1474.46,1127.76C1425.11,1076.37 1394.77,1006.62 1394.77,929.837C1394.77,850.327 1427.31,778.355 1479.79,726.509Z" style="fill:rgb(80,212,197);stroke:rgb(230,230,230);stroke-opacity:0;stroke-width:24.39px;"/>
                </g>
                <g transform="matrix(0.00502222,-0.999987,0.999987,0.00502222,340.035,2596.16)">
                    <path d="M1479.79,726.509C1529.14,777.898 1559.48,847.65 1559.48,924.431C1559.48,1003.94 1526.94,1075.91 1474.46,1127.76C1425.11,1076.37 1394.77,1006.62 1394.77,929.837C1394.77,850.327 1427.31,778.355 1479.79,726.509Z" style="fill:rgb(80,212,197);stroke:rgb(230,230,230);stroke-opacity:0;stroke-width:24.39px;"/>
                </g>
            </g>
            <g transform="matrix(0.255456,0.966821,-0.966821,0.255456,2187.76,-586.225)">
                <path d="M1479.79,726.509C1529.14,777.898 1559.48,847.65 1559.48,924.431C1559.48,1003.94 1526.94,1075.91 1474.46,1127.76C1425.11,1076.37 1394.77,1006.62 1394.77,929.837C1394.77,850.327 1427.31,778.355 1479.79,726.509Z" style="fill:rgb(0,241,212);stroke:rgb(230,230,230);stroke-opacity:0;stroke-width:24.39px;"/>
                <g transform="matrix(-0.00167408,0.999999,-0.999999,-0.00167408,2604.3,-345.538)">
                    <path d="M1479.79,726.509C1529.14,777.898 1559.48,847.65 1559.48,924.431C1559.48,1003.94 1526.94,1075.91 1474.46,1127.76C1425.11,1076.37 1394.77,1006.62 1394.77,929.837C1394.77,850.327 1427.31,778.355 1479.79,726.509Z" style="fill:rgb(0,241,212);stroke:rgb(230,230,230);stroke-opacity:0;stroke-width:24.39px;"/>
                </g>
                <g transform="matrix(-0.999994,-0.00334815,0.00334815,-0.999994,2945.48,2259.34)">
                    <path d="M1479.79,726.509C1529.14,777.898 1559.48,847.65 1559.48,924.431C1559.48,1003.94 1526.94,1075.91 1474.46,1127.76C1425.11,1076.37 1394.77,1006.62 1394.77,929.837C1394.77,850.327 1427.31,778.355 1479.79,726.509Z" style="fill:rgb(0,241,212);stroke:rgb(230,230,230);stroke-opacity:0;stroke-width:24.39px;"/>
                </g>
                <g transform="matrix(0.00502222,-0.999987,0.999987,0.00502222,340.035,2596.16)">
                    <path d="M1479.79,726.509C1529.14,777.898 1559.48,847.65 1559.48,924.431C1559.48,1003.94 1526.94,1075.91 1474.46,1127.76C1425.11,1076.37 1394.77,1006.62 1394.77,929.837C1394.77,850.327 1427.31,778.355 1479.79,726.509Z" style="fill:rgb(0,241,212);stroke:rgb(230,230,230);stroke-opacity:0;stroke-width:24.39px;"/>
                </g>
            </g>
            <g transform="matrix(-0.387501,0.921869,-0.921869,-0.387501,3085.13,204.885)">
                <path d="M1479.79,726.509C1529.14,777.898 1559.48,847.65 1559.48,924.431C1559.48,1003.94 1526.94,1075.91 1474.46,1127.76C1425.11,1076.37 1394.77,1006.62 1394.77,929.837C1394.77,850.327 1427.31,778.355 1479.79,726.509Z" style="fill:rgb(0,241,165);stroke:rgb(230,230,230);stroke-opacity:0;stroke-width:24.39px;"/>
                <g transform="matrix(-0.00167408,0.999999,-0.999999,-0.00167408,2604.3,-345.538)">
                    <path d="M1479.79,726.509C1529.14,777.898 1559.48,847.65 1559.48,924.431C1559.48,1003.94 1526.94,1075.91 1474.46,1127.76C1425.11,1076.37 1394.77,1006.62 1394.77,929.837C1394.77,850.327 1427.31,778.355 1479.79,726.509Z" style="fill:rgb(0,241,165);stroke:rgb(230,230,230);stroke-opacity:0;stroke-width:24.39px;"/>
                </g>
                <g transform="matrix(-0.999994,-0.00334815,0.00334815,-0.999994,2945.48,2259.34)">
                    <path d="M1479.79,726.509C1529.14,777.898 1559.48,847.65 1559.48,924.431C1559.48,1003.94 1526.94,1075.91 1474.46,1127.76C1425.11,1076.37 1394.77,1006.62 1394.77,929.837C1394.77,850.327 1427.31,778.355 1479.79,726.509Z" style="fill:rgb(0,241,165);stroke:rgb(230,230,230);stroke-opacity:0;stroke-width:24.39px;"/>
                </g>
                <g transform="matrix(0.00502222,-0.999987,0.999987,0.00502222,340.035,2596.16)">
                    <path d="M1479.79,726.509C1529.14,777.898 1559.48,847.65 1559.48,924.431C1559.48,1003.94 1526.94,1075.91 1474.46,1127.76C1425.11,1076.37 1394.77,1006.62 1394.77,929.837C1394.77,850.327 1427.31,778.355 1479.79,726.509Z" style="fill:rgb(0,241,165);stroke:rgb(230,230,230);stroke-opacity:0;stroke-width:24.39px;"/>
                </g>
            </g>
            <g transform="matrix(-0.869485,0.49396,-0.49396,-0.869485,3313.41,1379.2)">
                <path d="M1479.79,726.509C1529.14,777.898 1559.48,847.65 1559.48,924.431C1559.48,1003.94 1526.94,1075.91 1474.46,1127.76C1425.11,1076.37 1394.77,1006.62 1394.77,929.837C1394.77,850.327 1427.31,778.355 1479.79,726.509Z" style="fill:rgb(0,241,116);stroke:rgb(230,230,230);stroke-opacity:0;stroke-width:24.39px;"/>
                <g transform="matrix(-0.00167408,0.999999,-0.999999,-0.00167408,2604.3,-345.538)">
                    <path d="M1479.79,726.509C1529.14,777.898 1559.48,847.65 1559.48,924.431C1559.48,1003.94 1526.94,1075.91 1474.46,1127.76C1425.11,1076.37 1394.77,1006.62 1394.77,929.837C1394.77,850.327 1427.31,778.355 1479.79,726.509Z" style="fill:rgb(0,241,116);stroke:rgb(230,230,230);stroke-opacity:0;stroke-width:24.39px;"/>
                </g>
                <g transform="matrix(-0.999994,-0.00334815,0.00334815,-0.999994,2945.48,2259.34)">
                    <path d="M1479.79,726.509C1529.14,777.898 1559.48,847.65 1559.48,924.431C1559.48,1003.94 1526.94,1075.91 1474.46,1127.76C1425.11,1076.37 1394.77,1006.62 1394.77,929.837C1394.77,850.327 1427.31,778.355 1479.79,726.509Z" style="fill:rgb(0,241,116);stroke:rgb(230,230,230);stroke-opacity:0;stroke-width:24.39px;"/>
                </g>
                <g transform="matrix(0.00502222,-0.999987,0.999987,0.00502222,340.035,2596.16)">
                    <path d="M1479.79,726.509C1529.14,777.898 1559.48,847.65 1559.48,924.431C1559.48,1003.94 1526.94,1075.91 1474.46,1127.76C1425.11,1076.37 1394.77,1006.62 1394.77,929.837C1394.77,850.327 1427.31,778.355 1479.79,726.509Z" style="fill:rgb(0,241,116);stroke:rgb(230,230,230);stroke-opacity:0;stroke-width:24.39px;"/>
                </g>
            </g>
            <g transform="matrix(-0.990272,-0.139147,0.139147,-0.990272,2777.79,2448.88)">
                <path d="M1479.79,726.509C1529.14,777.898 1559.48,847.65 1559.48,924.431C1559.48,1003.94 1526.94,1075.91 1474.46,1127.76C1425.11,1076.37 1394.77,1006.62 1394.77,929.837C1394.77,850.327 1427.31,778.355 1479.79,726.509Z" style="fill:rgb(44,187,113);stroke:rgb(230,230,230);stroke-opacity:0;stroke-width:24.39px;"/>
                <g transform="matrix(-0.00167408,0.999999,-0.999999,-0.00167408,2604.3,-345.538)">
                    <path d="M1479.79,726.509C1529.14,777.898 1559.48,847.65 1559.48,924.431C1559.48,1003.94 1526.94,1075.91 1474.46,1127.76C1425.11,1076.37 1394.77,1006.62 1394.77,929.837C1394.77,850.327 1427.31,778.355 1479.79,726.509Z" style="fill:rgb(44,187,113);stroke:rgb(230,230,230);stroke-opacity:0;stroke-width:24.39px;"/>
                </g>
                <g transform="matrix(-0.999994,-0.00334815,0.00334815,-0.999994,2945.48,2259.34)">
                    <path d="M1479.79,726.509C1529.14,777.898 1559.48,847.65 1559.48,924.431C1559.48,1003.94 1526.94,1075.91 1474.46,1127.76C1425.11,1076.37 1394.77,1006.62 1394.77,929.837C1394.77,850.327 1427.31,778.355 1479.79,726.509Z" style="fill:rgb(44,187,113);stroke:rgb(230,230,230);stroke-opacity:0;stroke-width:24.39px;"/>
                </g>
                <g transform="matrix(0.00502222,-0.999987,0.999987,0.00502222,340.035,2596.16)">
                    <path d="M1479.79,726.509C1529.14,777.898 1559.48,847.65 1559.48,924.431C1559.48,1003.94 1526.94,1075.91 1474.46,1127.76C1425.11,1076.37 1394.77,1006.62 1394.77,929.837C1394.77,850.327 1427.31,778.355 1479.79,726.509Z" style="fill:rgb(44,187,113);stroke:rgb(230,230,230);stroke-opacity:0;stroke-width:24.39px;"/>
                </g>
            </g>
            <g transform="matrix(0.278458,-0.00160693,0.00160693,0.278458,1063.76,815.061)">
                <path d="M1479.79,726.509C1529.14,777.898 1559.48,847.65 1559.48,924.431C1559.48,1003.94 1526.94,1075.91 1474.46,1127.76C1425.11,1076.37 1394.77,1006.62 1394.77,929.837C1394.77,850.327 1427.31,778.355 1479.79,726.509Z" style="fill:rgb(76,227,85);stroke:rgb(230,230,230);stroke-opacity:0;stroke-width:87.58px;"/>
            </g>
            <g transform="matrix(-0.000285584,0.278462,-0.278462,-0.000285584,1790.5,716.263)">
                <path d="M1479.79,726.509C1529.14,777.898 1559.48,847.65 1559.48,924.431C1559.48,1003.94 1526.94,1075.91 1474.46,1127.76C1425.11,1076.37 1394.77,1006.62 1394.77,929.837C1394.77,850.327 1427.31,778.355 1479.79,726.509Z" style="fill:rgb(76,227,85);stroke:rgb(230,230,230);stroke-opacity:0;stroke-width:87.58px;"/>
            </g>
            <g transform="matrix(-0.278454,-0.00217808,0.00217808,-0.278454,1884.36,1443.66)">
                <path d="M1479.79,726.509C1529.14,777.898 1559.48,847.65 1559.48,924.431C1559.48,1003.94 1526.94,1075.91 1474.46,1127.76C1425.11,1076.37 1394.77,1006.62 1394.77,929.837C1394.77,850.327 1427.31,778.355 1479.79,726.509Z" style="fill:rgb(76,227,85);stroke:rgb(230,230,230);stroke-opacity:0;stroke-width:87.58px;"/>
            </g>
            <g transform="matrix(0.00407048,-0.278433,0.278433,0.00407048,1156.34,1532.57)">
                <path d="M1479.79,726.509C1529.14,777.898 1559.48,847.65 1559.48,924.431C1559.48,1003.94 1526.94,1075.91 1474.46,1127.76C1425.11,1076.37 1394.77,1006.62 1394.77,929.837C1394.77,850.327 1427.31,778.355 1479.79,726.509Z" style="fill:rgb(76,227,85);stroke:rgb(230,230,230);stroke-opacity:0;stroke-width:87.58px;"/>
            </g>
            <g transform="matrix(0.326724,-0.403023,0.403023,0.326724,539.508,1352.47)">
                <path d="M1479.79,726.509C1529.14,777.898 1559.48,847.65 1559.48,924.431C1559.48,1003.94 1526.94,1075.91 1474.46,1127.76C1425.11,1076.37 1394.77,1006.62 1394.77,929.837C1394.77,850.327 1427.31,778.355 1479.79,726.509Z" style="fill:rgb(94,145,97);stroke:rgb(230,230,230);stroke-opacity:0;stroke-width:47.01px;"/>
            </g>
            <g transform="matrix(0.360084,0.373518,-0.373518,0.360084,1365.63,169.751)">
                <path d="M1479.79,726.509C1529.14,777.898 1559.48,847.65 1559.48,924.431C1559.48,1003.94 1526.94,1075.91 1474.46,1127.76C1425.11,1076.37 1394.77,1006.62 1394.77,929.837C1394.77,850.327 1427.31,778.355 1479.79,726.509Z" style="fill:rgb(94,145,97);stroke:rgb(230,230,230);stroke-opacity:0;stroke-width:47.01px;"/>
            </g>
            <g transform="matrix(-0.414714,0.31175,-0.31175,-0.414714,2438.55,1134.19)">
                <path d="M1479.79,726.509C1529.14,777.898 1559.48,847.65 1559.48,924.431C1559.48,1003.94 1526.94,1075.91 1474.46,1127.76C1425.11,1076.37 1394.77,1006.62 1394.77,929.837C1394.77,850.327 1427.31,778.355 1479.79,726.509Z" style="fill:rgb(94,145,97);stroke:rgb(230,230,230);stroke-opacity:0;stroke-width:47.01px;"/>
            </g>
            <g transform="matrix(-0.258745,-0.449697,0.449697,-0.258745,1350.25,2081.24)">
                <path d="M1479.79,726.509C1529.14,777.898 1559.48,847.65 1559.48,924.431C1559.48,1003.94 1526.94,1075.91 1474.46,1127.76C1425.11,1076.37 1394.77,1006.62 1394.77,929.837C1394.77,850.327 1427.31,778.355 1479.79,726.509Z" style="fill:rgb(94,145,97);stroke:rgb(230,230,230);stroke-opacity:0;stroke-width:47.01px;"/>
            </g>
        </g>
    </g>
</svg>
