<?xml version="1.0" encoding="UTF-8" standalone="no"?><!DOCTYPE svg PUBLIC "-//W3C//DTD SVG 1.1//EN" "http://www.w3.org/Graphics/SVG/1.1/DTD/svg11.dtd"><svg width="100%" height="100%" viewBox="0 0 1902 891" version="1.1" xmlns="http://www.w3.org/2000/svg" xmlns:xlink="http://www.w3.org/1999/xlink" xml:space="preserve" xmlns:serif="http://www.serif.com/" style="fill-rule:evenodd;clip-rule:evenodd;stroke-linecap:round;stroke-linejoin:round;stroke-miterlimit:1.5;"><rect x="-2136.56" y="-265.305" width="17020.9" height="9477.68" style="stroke:#e6e6e6;stroke-opacity:0;stroke-width:18.75px;"/><rect x="9.375" y="9.375" width="1882.77" height="872.103" style="stroke:#e6e6e6;stroke-opacity:0;stroke-width:18.75px;"/><text x="434.403px" y="386.182px" style="font-family:'PoiretOne-Regular', 'Poiret One';font-size:376.194px;fill:#00ff95;">FEELFL<tspan x="1217.64px 1520.1px " y="386.182px 386.182px ">OW</tspan></text><g><g><path d="M211.514,392.743c-17.299,-18.015 -27.934,-42.467 -27.934,-69.383c-0,-27.874 11.405,-53.104 29.803,-71.279c17.299,18.015 27.935,42.467 27.935,69.383c-0,27.873 -11.405,53.104 -29.804,71.279Z" style="fill:#217a70;stroke:#e6e6e6;stroke-opacity:0;stroke-width:18.75px;"/><path d="M72.859,250.232c18.044,-17.269 42.514,-27.864 69.43,-27.819c27.873,0.047 53.084,11.494 71.229,29.923c-18.044,17.269 -42.514,27.863 -69.43,27.818c-27.874,-0.046 -53.085,-11.494 -71.229,-29.922Z" style="fill:#217a70;stroke:#e6e6e6;stroke-opacity:0;stroke-width:18.75px;"/><path d="M215.602,111.815c17.239,18.073 27.792,42.56 27.702,69.476c-0.093,27.873 -11.583,53.065 -30.041,71.179c-17.239,-18.073 -27.793,-42.56 -27.703,-69.477c0.094,-27.873 11.583,-53.065 30.042,-71.178Z" style="fill:#217a70;stroke:#e6e6e6;stroke-opacity:0;stroke-width:18.75px;"/><path d="M353.78,254.79c-18.102,17.208 -42.607,27.721 -69.523,27.585c-27.873,-0.14 -53.046,-11.671 -71.128,-30.16c18.102,-17.209 42.607,-27.722 69.523,-27.586c27.873,0.14 53.045,11.671 71.128,30.161Z" style="fill:#217a70;stroke:#e6e6e6;stroke-opacity:0;stroke-width:18.75px;"/></g><g><path d="M126.166,362.425c-2.714,-24.828 3.779,-50.69 20.202,-72.016c17.006,-22.083 41.437,-35.114 67.103,-38.289c2.714,24.828 -3.779,50.691 -20.202,72.016c-17.006,22.084 -41.436,35.115 -67.103,38.289Z" style="fill:#50d4c5;stroke:#e6e6e6;stroke-opacity:0;stroke-width:18.75px;"/><path d="M103.263,164.915c24.832,-2.672 50.684,3.864 71.982,20.322c22.055,17.044 35.045,41.496 38.177,67.167c-24.833,2.673 -50.684,-3.863 -71.983,-20.322c-22.055,-17.043 -35.045,-41.495 -38.176,-67.167Z" style="fill:#50d4c5;stroke:#e6e6e6;stroke-opacity:0;stroke-width:18.75px;"/><path d="M300.811,142.342c2.631,24.837 -3.948,50.678 -20.442,71.948c-17.081,22.027 -41.555,34.976 -67.231,38.065c-2.631,-24.837 3.948,-50.678 20.442,-71.948c17.08,-22.027 41.554,-34.976 67.231,-38.065Z" style="fill:#50d4c5;stroke:#e6e6e6;stroke-opacity:0;stroke-width:18.75px;"/><path d="M323.053,339.928c-24.841,2.589 -50.671,-4.033 -71.914,-20.563c-21.998,-17.117 -34.906,-41.612 -37.951,-67.294c24.841,-2.589 50.67,4.033 71.913,20.563c21.998,17.117 34.907,41.612 37.952,67.294Z" style="fill:#50d4c5;stroke:#e6e6e6;stroke-opacity:0;stroke-width:18.75px;"/></g><g><path d="M77.044,286.331c12.998,-21.327 33.922,-37.856 59.945,-44.732c26.948,-7.121 54.255,-2.539 76.527,10.606c-12.998,21.327 -33.922,37.856 -59.945,44.732c-26.949,7.12 -54.255,2.539 -76.527,-10.606Z" style="fill:#00f1d4;stroke:#e6e6e6;stroke-opacity:0;stroke-width:18.75px;"/><path d="M179.406,115.871c21.305,13.033 37.8,33.985 44.632,60.02c7.075,26.96 2.448,54.259 -10.734,76.509c-21.305,-13.034 -37.8,-33.985 -44.632,-60.02c-7.075,-26.96 -2.448,-54.26 10.734,-76.509Z" style="fill:#00f1d4;stroke:#e6e6e6;stroke-opacity:0;stroke-width:18.75px;"/><path d="M349.695,218.518c-13.07,21.284 -34.049,37.743 -60.095,44.531c-26.972,7.031 -54.263,2.358 -76.491,-10.862c13.07,-21.283 34.049,-37.742 60.095,-44.531c26.972,-7.03 54.263,-2.357 76.491,10.862Z" style="fill:#00f1d4;stroke:#e6e6e6;stroke-opacity:0;stroke-width:18.75px;"/><path d="M246.762,388.635c-21.261,-13.105 -37.685,-34.112 -44.43,-60.169c-6.985,-26.984 -2.267,-54.267 10.99,-76.473c21.261,13.105 37.685,34.112 44.43,60.169c6.985,26.984 2.267,54.267 -10.99,76.473Z" style="fill:#00f1d4;stroke:#e6e6e6;stroke-opacity:0;stroke-width:18.75px;"/></g><g><path d="M84.553,196.07c23.31,-8.967 49.973,-9.296 74.787,1.134c25.695,10.801 44.535,31.092 54.16,55.095c-23.311,8.967 -49.973,9.296 -74.787,-1.134c-25.695,-10.801 -44.535,-31.092 -54.16,-55.095Z" style="fill:#00f1a5;stroke:#e6e6e6;stroke-opacity:0;stroke-width:18.75px;"/><path d="M269.658,123.471c8.928,23.326 9.213,49.989 -1.259,74.785c-10.844,25.677 -31.166,44.483 -55.186,54.068c-8.927,-23.326 -9.212,-49.989 1.259,-74.785c10.844,-25.677 31.167,-44.483 55.186,-54.068Z" style="fill:#00f1a5;stroke:#e6e6e6;stroke-opacity:0;stroke-width:18.75px;"/><path d="M341.947,308.698c-23.34,8.889 -50.004,9.129 -74.782,-1.384c-25.66,-10.887 -44.431,-31.241 -53.976,-55.277c23.34,-8.888 50.004,-9.128 74.783,1.385c25.659,10.887 44.43,31.24 53.975,55.276Z" style="fill:#00f1a5;stroke:#e6e6e6;stroke-opacity:0;stroke-width:18.75px;"/><path d="M156.6,380.677c-8.85,-23.356 -9.046,-50.02 1.509,-74.781c10.93,-25.64 31.315,-44.378 55.367,-53.883c8.849,23.356 9.045,50.02 -1.51,74.781c-10.93,25.64 -31.315,44.378 -55.366,53.883Z" style="fill:#00f1a5;stroke:#e6e6e6;stroke-opacity:0;stroke-width:18.75px;"/></g><g><path d="M145.574,129.138c23.94,7.119 45.265,23.126 58.561,46.529c13.768,24.236 16.314,51.807 9.295,76.698c-23.94,-7.119 -45.266,-23.126 -58.561,-46.53c-13.768,-24.235 -16.314,-51.806 -9.295,-76.697Z" style="fill:#00f174;stroke:#e6e6e6;stroke-opacity:0;stroke-width:18.75px;"/><path d="M336.527,184.559c-7.159,23.928 -23.201,45.227 -46.627,58.484c-24.258,13.727 -51.833,16.227 -76.712,9.166c7.158,-23.928 23.201,-45.227 46.627,-58.483c24.258,-13.728 51.833,-16.228 76.712,-9.167Z" style="fill:#00f174;stroke:#e6e6e6;stroke-opacity:0;stroke-width:18.75px;"/><path d="M280.787,375.42c-23.916,-7.199 -45.188,-23.277 -58.406,-46.725c-13.687,-24.281 -16.14,-51.861 -9.038,-76.728c23.916,7.199 45.188,23.277 58.405,46.725c13.687,24.281 16.141,51.861 9.039,76.728Z" style="fill:#00f174;stroke:#e6e6e6;stroke-opacity:0;stroke-width:18.75px;"/><path d="M90.02,319.36c7.239,-23.904 23.352,-45.149 46.822,-58.327c24.304,-13.646 51.888,-16.054 76.743,-8.91c-7.239,23.904 -23.352,45.149 -46.822,58.327c-24.304,13.646 -51.888,16.054 -76.743,8.91Z" style="fill:#00f174;stroke:#e6e6e6;stroke-opacity:0;stroke-width:18.75px;"/></g><g><path d="M234.758,113.34c14.624,20.247 21.754,45.941 18.008,72.596c-3.878,27.602 -18.683,50.999 -39.431,66.438c-14.624,-20.247 -21.754,-45.941 -18.009,-72.596c3.879,-27.602 18.684,-51 39.432,-66.438Z" style="fill:#2cbb71;stroke:#e6e6e6;stroke-opacity:0;stroke-width:18.75px;"/><path d="M352.235,273.759c-20.272,14.59 -45.978,21.676 -72.626,17.886c-27.595,-3.924 -50.968,-18.768 -66.372,-39.542c20.272,-14.59 45.977,-21.677 72.626,-17.887c27.595,3.924 50.968,18.769 66.372,39.543Z" style="fill:#2cbb71;stroke:#e6e6e6;stroke-opacity:0;stroke-width:18.75px;"/><path d="M191.62,390.966c-14.556,-20.295 -21.6,-46.013 -17.765,-72.655c3.97,-27.589 18.854,-50.937 39.653,-66.306c14.556,20.296 21.6,46.014 17.766,72.656c-3.971,27.589 -18.854,50.937 -39.654,66.305Z" style="fill:#2cbb71;stroke:#e6e6e6;stroke-opacity:0;stroke-width:18.75px;"/><path d="M74.681,230.156c20.32,-14.522 46.05,-21.523 72.685,-17.644c27.582,4.017 50.905,18.939 66.239,39.765c-20.32,14.522 -46.049,21.523 -72.685,17.643c-27.582,-4.017 -50.905,-18.939 -66.239,-39.764Z" style="fill:#2cbb71;stroke:#e6e6e6;stroke-opacity:0;stroke-width:18.75px;"/></g><path d="M212.497,291.615c-4.846,-4.989 -7.847,-11.78 -7.89,-19.275c-0.045,-7.762 3.091,-14.806 8.185,-19.896c4.845,4.988 7.846,11.78 7.89,19.275c0.044,7.762 -3.091,14.805 -8.185,19.896Z" style="fill:#4ce355;stroke:#e6e6e6;stroke-opacity:0;stroke-width:18.75px;"/><path d="M173.661,251.954c5.021,-4.812 11.833,-7.767 19.328,-7.759c7.762,0.008 14.784,3.191 19.84,8.32c-5.021,4.812 -11.833,7.766 -19.328,7.759c-7.762,-0.008 -14.784,-3.192 -19.84,-8.32Z" style="fill:#4ce355;stroke:#e6e6e6;stroke-opacity:0;stroke-width:18.75px;"/><path d="M213.585,213.388c4.777,5.054 7.686,11.886 7.627,19.381c-0.061,7.761 -3.291,14.762 -8.454,19.783c-4.778,-5.054 -7.686,-11.886 -7.627,-19.381c0.06,-7.761 3.291,-14.762 8.454,-19.783Z" style="fill:#4ce355;stroke:#e6e6e6;stroke-opacity:0;stroke-width:18.75px;"/><path d="M251.878,253.573c-5.086,4.743 -11.937,7.605 -19.432,7.496c-7.761,-0.114 -14.739,-3.392 -19.725,-8.589c5.087,-4.743 11.938,-7.605 19.432,-7.495c7.761,0.113 14.74,3.392 19.725,8.588Z" style="fill:#4ce355;stroke:#e6e6e6;stroke-opacity:0;stroke-width:18.75px;"/><path d="M269.006,299.166c-12.912,1.086 -26.242,-2.616 -37.09,-11.41c-11.233,-9.107 -17.675,-21.947 -18.989,-35.3c12.912,-1.086 26.242,2.616 37.09,11.411c11.233,9.106 17.675,21.946 18.989,35.299Z" style="fill:#5e9161;stroke:#e6e6e6;stroke-opacity:0;stroke-width:18.75px;"/><path d="M159.867,302.448c0.5,-12.949 5.804,-25.726 15.857,-35.418c10.411,-10.037 23.942,-14.862 37.356,-14.534c-0.5,12.948 -5.804,25.726 -15.857,35.418c-10.411,10.036 -23.942,14.861 -37.356,14.534Z" style="fill:#5e9161;stroke:#e6e6e6;stroke-opacity:0;stroke-width:18.75px;"/><path d="M169.945,193.726c12.79,2.078 24.824,8.903 33.215,20.065c8.69,11.56 11.825,25.579 9.861,38.852c-12.79,-2.078 -24.824,-8.903 -33.215,-20.066c-8.689,-11.559 -11.825,-25.578 -9.861,-38.851Z" style="fill:#5e9161;stroke:#e6e6e6;stroke-opacity:0;stroke-width:18.75px;"/><path d="M276.621,217.012c-3.625,12.44 -11.869,23.55 -23.973,30.514c-12.535,7.212 -26.832,8.612 -39.765,5.041c3.625,-12.441 11.869,-23.551 23.973,-30.515c12.535,-7.212 26.832,-8.611 39.765,-5.04Z" style="fill:#5e9161;stroke:#e6e6e6;stroke-opacity:0;stroke-width:18.75px;"/></g></svg>